<svg width="18" height="18" viewBox="0 0 18 18" fill="none" xmlns="http://www.w3.org/2000/svg">
<g id="vuesax/outline/trash">
<g id="trash">
<path id="Vector" d="M16.5001 4.6084C16.4834 4.6084 16.4584 4.6084 16.4334 4.6084C12.0251 4.16673 7.62505 4.00006 3.26672 4.44173L1.56672 4.6084C1.21672 4.64173 0.908385 4.39173 0.875052 4.04173C0.841718 3.69173 1.09172 3.39173 1.43339 3.35839L3.13339 3.19173C7.56672 2.74173 12.0584 2.91673 16.5584 3.35839C16.9001 3.39173 17.1501 3.70006 17.1167 4.04173C17.0917 4.36673 16.8167 4.6084 16.5001 4.6084Z" fill="#7E92A2"/>
<path id="Vector_2" d="M6.08338 3.76675C6.05005 3.76675 6.01672 3.76675 5.97505 3.75842C5.64172 3.70008 5.40838 3.37508 5.46672 3.04175L5.65005 1.95008C5.78338 1.15008 5.96672 0.041748 7.90838 0.041748H10.0917C12.0417 0.041748 12.225 1.19175 12.35 1.95841L12.5334 3.04175C12.5917 3.38341 12.3584 3.70842 12.025 3.75842C11.6834 3.81675 11.3584 3.58342 11.3084 3.25008L11.125 2.16675C11.0084 1.44175 10.9834 1.30008 10.1 1.30008H7.91672C7.03338 1.30008 7.01672 1.41675 6.89172 2.15841L6.70005 3.24175C6.65005 3.55008 6.38338 3.76675 6.08338 3.76675Z" fill="#7E92A2"/>
<path id="Vector_3" d="M11.675 17.9584H6.325C3.41666 17.9584 3.3 16.3501 3.20833 15.0501L2.66666 6.6584C2.64166 6.31673 2.90833 6.01673 3.25 5.99173C3.6 5.97506 3.89166 6.2334 3.91666 6.57506L4.45833 14.9667C4.55 16.2334 4.58333 16.7084 6.325 16.7084H11.675C13.425 16.7084 13.4583 16.2334 13.5417 14.9667L14.0833 6.57506C14.1083 6.2334 14.4083 5.97506 14.75 5.99173C15.0917 6.01673 15.3583 6.3084 15.3333 6.6584L14.7917 15.0501C14.7 16.3501 14.5833 17.9584 11.675 17.9584Z" fill="#7E92A2"/>
<path id="Vector_4" d="M10.3834 13.375H7.6084C7.26673 13.375 6.9834 13.0917 6.9834 12.75C6.9834 12.4083 7.26673 12.125 7.6084 12.125H10.3834C10.7251 12.125 11.0084 12.4083 11.0084 12.75C11.0084 13.0917 10.7251 13.375 10.3834 13.375Z" fill="#7E92A2"/>
<path id="Vector_5" d="M11.0834 10.0417H6.91675C6.57508 10.0417 6.29175 9.75841 6.29175 9.41675C6.29175 9.07508 6.57508 8.79175 6.91675 8.79175H11.0834C11.4251 8.79175 11.7084 9.07508 11.7084 9.41675C11.7084 9.75841 11.4251 10.0417 11.0834 10.0417Z" fill="#7E92A2"/>
</g>
</g>
</svg>
