<svg width="18" height="18" viewBox="0 0 18 18" fill="none" xmlns="http://www.w3.org/2000/svg">
<g id="vuesax/outline/briefcase">
<g id="Vector">
<path d="M12.3333 17.9582H5.66665C1.81665 17.9582 1.09999 16.1665 0.916653 14.4248L0.291653 7.74984C0.199986 6.87484 0.174986 5.58317 1.04165 4.6165C1.79165 3.78317 3.03332 3.38317 4.83332 3.38317H13.1667C14.975 3.38317 16.2167 3.7915 16.9583 4.6165C17.825 5.58317 17.8 6.87484 17.7083 7.75817L17.0833 14.4165C16.9 16.1665 16.1833 17.9582 12.3333 17.9582ZM4.83332 4.62484C3.42499 4.62484 2.45832 4.89984 1.96665 5.44984C1.55832 5.89984 1.42499 6.5915 1.53332 7.62484L2.15832 14.2998C2.29999 15.6165 2.65832 16.7082 5.66665 16.7082H12.3333C15.3333 16.7082 15.7 15.6165 15.8417 14.2915L16.4667 7.63317C16.575 6.5915 16.4417 5.89984 16.0333 5.44984C15.5417 4.89984 14.575 4.62484 13.1667 4.62484H4.83332Z" fill="#7E92A2"/>
<path d="M12.3333 4.62484C11.9917 4.62484 11.7083 4.3415 11.7083 3.99984V3.33317C11.7083 1.84984 11.7083 1.2915 9.66665 1.2915H8.33332C6.29165 1.2915 6.29165 1.84984 6.29165 3.33317V3.99984C6.29165 4.3415 6.00832 4.62484 5.66665 4.62484C5.32499 4.62484 5.04165 4.3415 5.04165 3.99984V3.33317C5.04165 1.8665 5.04165 0.0415039 8.33332 0.0415039H9.66665C12.9583 0.0415039 12.9583 1.8665 12.9583 3.33317V3.99984C12.9583 4.3415 12.675 4.62484 12.3333 4.62484Z" fill="#7E92A2"/>
<path d="M8.99999 12.9582C6.70832 12.9582 6.70832 11.5415 6.70832 10.6915V9.83317C6.70832 8.65817 6.99165 8.37484 8.16665 8.37484H9.83332C11.0083 8.37484 11.2917 8.65817 11.2917 9.83317V10.6665C11.2917 11.5332 11.2917 12.9582 8.99999 12.9582ZM7.95832 9.62484C7.95832 9.6915 7.95832 9.7665 7.95832 9.83317V10.6915C7.95832 11.5498 7.95832 11.7082 8.99999 11.7082C10.0417 11.7082 10.0417 11.5748 10.0417 10.6832V9.83317C10.0417 9.7665 10.0417 9.6915 10.0417 9.62484C9.97499 9.62484 9.89999 9.62484 9.83332 9.62484H8.16665C8.09999 9.62484 8.02499 9.62484 7.95832 9.62484Z" fill="#7E92A2"/>
<path d="M10.6667 11.3082C10.3583 11.3082 10.0833 11.0748 10.05 10.7582C10.0083 10.4165 10.25 10.0998 10.5917 10.0582C12.7917 9.78317 14.9 8.94984 16.675 7.65817C16.95 7.44984 17.3417 7.5165 17.55 7.79984C17.75 8.07484 17.6917 8.4665 17.4083 8.67484C15.4583 10.0915 13.1583 10.9998 10.7417 11.3082C10.7167 11.3082 10.6917 11.3082 10.6667 11.3082Z" fill="#7E92A2"/>
<path d="M7.33332 11.3165C7.30832 11.3165 7.28332 11.3165 7.25832 11.3165C4.97499 11.0582 2.74999 10.2248 0.824986 8.90817C0.541653 8.71651 0.466653 8.32484 0.658319 8.0415C0.849986 7.75817 1.24165 7.68317 1.52499 7.87484C3.28332 9.07484 5.30832 9.83317 7.39165 10.0748C7.73332 10.1165 7.98332 10.4248 7.94165 10.7665C7.91665 11.0832 7.64999 11.3165 7.33332 11.3165Z" fill="#7E92A2"/>
</g>
</g>
</svg>
