<svg width="18" height="18" viewBox="0 0 18 18" fill="none" xmlns="http://www.w3.org/2000/svg">
<g id="vuesax/outline/calendar">
<g id="Vector">
<path d="M5.66667 3.7915C5.325 3.7915 5.04167 3.50817 5.04167 3.1665V0.666504C5.04167 0.324837 5.325 0.0415039 5.66667 0.0415039C6.00833 0.0415039 6.29167 0.324837 6.29167 0.666504V3.1665C6.29167 3.50817 6.00833 3.7915 5.66667 3.7915Z" fill="#7E92A2"/>
<path d="M12.3333 3.7915C11.9917 3.7915 11.7083 3.50817 11.7083 3.1665V0.666504C11.7083 0.324837 11.9917 0.0415039 12.3333 0.0415039C12.675 0.0415039 12.9583 0.324837 12.9583 0.666504V3.1665C12.9583 3.50817 12.675 3.7915 12.3333 3.7915Z" fill="#7E92A2"/>
<path d="M6.08333 11.0832C5.975 11.0832 5.86667 11.0582 5.76667 11.0165C5.65833 10.9749 5.575 10.9165 5.49167 10.8415C5.34167 10.6832 5.25 10.4748 5.25 10.2498C5.25 10.1415 5.275 10.0332 5.31667 9.93317C5.35833 9.83317 5.41667 9.74152 5.49167 9.65818C5.575 9.58318 5.65833 9.52483 5.76667 9.48317C6.06667 9.35817 6.44167 9.42485 6.675 9.65818C6.825 9.81652 6.91667 10.0332 6.91667 10.2498C6.91667 10.2998 6.90833 10.3582 6.9 10.4165C6.89167 10.4665 6.875 10.5165 6.85 10.5665C6.83333 10.6165 6.80833 10.6665 6.775 10.7165C6.75 10.7582 6.70833 10.7998 6.675 10.8415C6.51667 10.9915 6.3 11.0832 6.08333 11.0832Z" fill="#7E92A2"/>
<path d="M9 11.0832C8.89167 11.0832 8.78333 11.0582 8.68333 11.0165C8.575 10.9748 8.49167 10.9165 8.40833 10.8415C8.25833 10.6832 8.16667 10.4748 8.16667 10.2498C8.16667 10.1415 8.19167 10.0332 8.23333 9.93316C8.275 9.83316 8.33333 9.74151 8.40833 9.65817C8.49167 9.58317 8.575 9.52482 8.68333 9.48316C8.98333 9.34982 9.35833 9.42484 9.59167 9.65817C9.74167 9.81651 9.83333 10.0332 9.83333 10.2498C9.83333 10.2998 9.825 10.3582 9.81667 10.4165C9.80833 10.4665 9.79167 10.5165 9.76666 10.5665C9.75 10.6165 9.725 10.6665 9.69167 10.7165C9.66667 10.7582 9.625 10.7998 9.59167 10.8415C9.43333 10.9915 9.21667 11.0832 9 11.0832Z" fill="#7E92A2"/>
<path d="M11.9167 11.0832C11.8083 11.0832 11.7 11.0582 11.6 11.0165C11.4917 10.9748 11.4083 10.9165 11.325 10.8415C11.2917 10.7998 11.2583 10.7582 11.225 10.7165C11.1917 10.6665 11.1667 10.6165 11.15 10.5665C11.125 10.5165 11.1083 10.4665 11.1 10.4165C11.0917 10.3582 11.0833 10.2998 11.0833 10.2498C11.0833 10.0332 11.175 9.81651 11.325 9.65817C11.4083 9.58317 11.4917 9.52482 11.6 9.48316C11.9083 9.34982 12.275 9.42484 12.5083 9.65817C12.6583 9.81651 12.75 10.0332 12.75 10.2498C12.75 10.2998 12.7417 10.3582 12.7333 10.4165C12.725 10.4665 12.7083 10.5165 12.6833 10.5665C12.6667 10.6165 12.6417 10.6665 12.6083 10.7165C12.5833 10.7582 12.5417 10.7998 12.5083 10.8415C12.35 10.9915 12.1333 11.0832 11.9167 11.0832Z" fill="#7E92A2"/>
<path d="M6.08333 13.9998C5.975 13.9998 5.86667 13.9749 5.76667 13.9332C5.66667 13.8915 5.575 13.8332 5.49167 13.7582C5.34167 13.5998 5.25 13.3832 5.25 13.1665C5.25 13.0582 5.275 12.9498 5.31667 12.8498C5.35833 12.7415 5.41667 12.6498 5.49167 12.5748C5.8 12.2665 6.36667 12.2665 6.675 12.5748C6.825 12.7332 6.91667 12.9498 6.91667 13.1665C6.91667 13.3832 6.825 13.5998 6.675 13.7582C6.51667 13.9082 6.3 13.9998 6.08333 13.9998Z" fill="#7E92A2"/>
<path d="M9 13.9998C8.78333 13.9998 8.56667 13.9082 8.40833 13.7582C8.25833 13.5998 8.16667 13.3832 8.16667 13.1665C8.16667 13.0582 8.19167 12.9498 8.23333 12.8498C8.275 12.7415 8.33333 12.6498 8.40833 12.5748C8.71667 12.2665 9.28333 12.2665 9.59167 12.5748C9.66667 12.6498 9.725 12.7415 9.76666 12.8498C9.80833 12.9498 9.83333 13.0582 9.83333 13.1665C9.83333 13.3832 9.74167 13.5998 9.59167 13.7582C9.43333 13.9082 9.21667 13.9998 9 13.9998Z" fill="#7E92A2"/>
<path d="M11.9167 13.9999C11.7 13.9999 11.4833 13.9082 11.325 13.7582C11.25 13.6832 11.1917 13.5915 11.15 13.4832C11.1083 13.3832 11.0833 13.2749 11.0833 13.1665C11.0833 13.0582 11.1083 12.9499 11.15 12.8499C11.1917 12.7415 11.25 12.6499 11.325 12.5749C11.5167 12.3832 11.8083 12.2915 12.075 12.3499C12.1333 12.3582 12.1833 12.3749 12.2333 12.3999C12.2833 12.4165 12.3333 12.4415 12.3833 12.4749C12.425 12.4999 12.4667 12.5415 12.5083 12.5749C12.6583 12.7332 12.75 12.9499 12.75 13.1665C12.75 13.3832 12.6583 13.5999 12.5083 13.7582C12.35 13.9082 12.1333 13.9999 11.9167 13.9999Z" fill="#7E92A2"/>
<path d="M16.0833 7.19981H1.91667C1.575 7.19981 1.29167 6.91648 1.29167 6.57481C1.29167 6.23314 1.575 5.94981 1.91667 5.94981H16.0833C16.425 5.94981 16.7083 6.23314 16.7083 6.57481C16.7083 6.91648 16.425 7.19981 16.0833 7.19981Z" fill="#7E92A2"/>
<path d="M12.3333 17.9582H5.66667C2.625 17.9582 0.875 16.2082 0.875 13.1665V6.08317C0.875 3.0415 2.625 1.2915 5.66667 1.2915H12.3333C15.375 1.2915 17.125 3.0415 17.125 6.08317V13.1665C17.125 16.2082 15.375 17.9582 12.3333 17.9582ZM5.66667 2.5415C3.28333 2.5415 2.125 3.69984 2.125 6.08317V13.1665C2.125 15.5498 3.28333 16.7082 5.66667 16.7082H12.3333C14.7167 16.7082 15.875 15.5498 15.875 13.1665V6.08317C15.875 3.69984 14.7167 2.5415 12.3333 2.5415H5.66667Z" fill="#7E92A2"/>
</g>
</g>
</svg>
