<svg width="18" height="18" viewBox="0 0 18 18" fill="none" xmlns="http://www.w3.org/2000/svg">
<g id="vuesax/outline/profile-2user">
<g id="Vector">
<path d="M6.63301 8.68342C6.60801 8.68342 6.59134 8.68342 6.56634 8.68342C6.52467 8.67508 6.46634 8.67508 6.41634 8.68342C3.99967 8.60841 2.17467 6.70842 2.17467 4.36675C2.17467 1.98341 4.11634 0.041748 6.49967 0.041748C8.88301 0.041748 10.8247 1.98341 10.8247 4.36675C10.8163 6.70842 8.98301 8.60841 6.65801 8.68342C6.64967 8.68342 6.64134 8.68342 6.63301 8.68342ZM6.49967 1.29175C4.80801 1.29175 3.42467 2.67508 3.42467 4.36675C3.42467 6.03341 4.72467 7.37508 6.38301 7.43341C6.43301 7.42508 6.54134 7.42508 6.64967 7.43341C8.28301 7.35841 9.56634 6.01675 9.57467 4.36675C9.57467 2.67508 8.19134 1.29175 6.49967 1.29175Z" fill="#7E92A2"/>
<path d="M12.783 8.79175C12.758 8.79175 12.733 8.79175 12.708 8.78341C12.3663 8.81675 12.0163 8.57508 11.983 8.23341C11.9497 7.89175 12.158 7.58342 12.4997 7.54175C12.5997 7.53341 12.708 7.53341 12.7997 7.53341C14.0163 7.46675 14.9663 6.46675 14.9663 5.24175C14.9663 3.97508 13.9413 2.95008 12.6747 2.95008C12.333 2.95841 12.0497 2.67508 12.0497 2.33341C12.0497 1.99175 12.333 1.70841 12.6747 1.70841C14.6247 1.70841 16.2163 3.30008 16.2163 5.25008C16.2163 7.16675 14.7163 8.71675 12.808 8.79175C12.7997 8.79175 12.7913 8.79175 12.783 8.79175Z" fill="#7E92A2"/>
<path d="M6.64134 17.7917C5.00801 17.7917 3.36634 17.3751 2.12467 16.5417C0.966341 15.7751 0.333008 14.7251 0.333008 13.5834C0.333008 12.4417 0.966341 11.3834 2.12467 10.6084C4.62467 8.95008 8.67467 8.95008 11.158 10.6084C12.308 11.3751 12.9497 12.4251 12.9497 13.5667C12.9497 14.7084 12.3163 15.7667 11.158 16.5417C9.90801 17.3751 8.27467 17.7917 6.64134 17.7917ZM2.81634 11.6584C2.01634 12.1917 1.58301 12.8751 1.58301 13.5917C1.58301 14.3001 2.02467 14.9834 2.81634 15.5084C4.89134 16.9001 8.39134 16.9001 10.4663 15.5084C11.2663 14.9751 11.6997 14.2917 11.6997 13.5751C11.6997 12.8667 11.258 12.1834 10.4663 11.6584C8.39134 10.2751 4.89134 10.2751 2.81634 11.6584Z" fill="#7E92A2"/>
<path d="M14.283 16.2917C13.9913 16.2917 13.733 16.0917 13.6747 15.7917C13.608 15.4501 13.8247 15.1251 14.158 15.0501C14.683 14.9417 15.1663 14.7334 15.5413 14.4417C16.0163 14.0834 16.2747 13.6334 16.2747 13.1584C16.2747 12.6834 16.0163 12.2334 15.5497 11.8834C15.183 11.6001 14.7247 11.4001 14.183 11.2751C13.8497 11.2001 13.633 10.8667 13.708 10.5251C13.783 10.1917 14.1163 9.97508 14.458 10.0501C15.1747 10.2084 15.7997 10.4917 16.308 10.8834C17.083 11.4667 17.5247 12.2917 17.5247 13.1584C17.5247 14.0251 17.0747 14.8501 16.2997 15.4417C15.783 15.8417 15.133 16.1334 14.4163 16.2751C14.3663 16.2917 14.3247 16.2917 14.283 16.2917Z" fill="#7E92A2"/>
</g>
</g>
</svg>
