<svg width="18" height="18" viewBox="0 0 18 18" fill="none" xmlns="http://www.w3.org/2000/svg">
<g id="vuesax/outline/setting-2">
<g id="Vector">
<path d="M8.99996 12.1251C7.27496 12.1251 5.87496 10.7251 5.87496 9.00008C5.87496 7.27508 7.27496 5.87508 8.99996 5.87508C10.725 5.87508 12.125 7.27508 12.125 9.00008C12.125 10.7251 10.725 12.1251 8.99996 12.1251ZM8.99996 7.12508C7.96663 7.12508 7.12496 7.96674 7.12496 9.00008C7.12496 10.0334 7.96663 10.8751 8.99996 10.8751C10.0333 10.8751 10.875 10.0334 10.875 9.00008C10.875 7.96674 10.0333 7.12508 8.99996 7.12508Z" fill="#7E92A2"/>
<path d="M11.675 17.4917C11.5 17.4917 11.325 17.4667 11.15 17.4251C10.6333 17.2834 10.2 16.9584 9.92496 16.5001L9.82496 16.3334C9.33329 15.4834 8.65829 15.4834 8.16663 16.3334L8.07496 16.4917C7.79996 16.9584 7.36663 17.2917 6.84996 17.4251C6.32496 17.5667 5.78329 17.4917 5.32496 17.2167L3.89163 16.3917C3.38329 16.1001 3.01663 15.6251 2.85829 15.0501C2.70829 14.4751 2.78329 13.8834 3.07496 13.3751C3.31663 12.9501 3.38329 12.5667 3.24163 12.3251C3.09996 12.0834 2.74163 11.9417 2.24996 11.9417C1.03329 11.9417 0.041626 10.9501 0.041626 9.73341V8.26674C0.041626 7.05008 1.03329 6.05841 2.24996 6.05841C2.74163 6.05841 3.09996 5.91674 3.24163 5.67508C3.38329 5.43341 3.32496 5.05008 3.07496 4.62508C2.78329 4.11674 2.70829 3.51674 2.85829 2.95008C3.00829 2.37508 3.37496 1.90008 3.89163 1.60841L5.33329 0.783409C6.27496 0.225076 7.51663 0.550076 8.08329 1.50841L8.18329 1.67508C8.67496 2.52508 9.34996 2.52508 9.84163 1.67508L9.93329 1.51674C10.5 0.550076 11.7416 0.225076 12.6916 0.791743L14.125 1.61674C14.6333 1.90841 15 2.38341 15.1583 2.95841C15.3083 3.53341 15.2333 4.12508 14.9416 4.63341C14.7 5.05841 14.6333 5.44174 14.775 5.68341C14.9166 5.92508 15.275 6.06674 15.7666 6.06674C16.9833 6.06674 17.975 7.05841 17.975 8.27508V9.74174C17.975 10.9584 16.9833 11.9501 15.7666 11.9501C15.275 11.9501 14.9166 12.0917 14.775 12.3334C14.6333 12.5751 14.6916 12.9584 14.9416 13.3834C15.2333 13.8917 15.3166 14.4917 15.1583 15.0584C15.0083 15.6334 14.6416 16.1084 14.125 16.4001L12.6833 17.2251C12.3666 17.4001 12.025 17.4917 11.675 17.4917ZM8.99996 14.4084C9.74163 14.4084 10.4333 14.8751 10.9083 15.7001L11 15.8584C11.1 16.0334 11.2666 16.1584 11.4666 16.2084C11.6666 16.2584 11.8666 16.2334 12.0333 16.1334L13.475 15.3001C13.6916 15.1751 13.8583 14.9667 13.925 14.7167C13.9916 14.4667 13.9583 14.2084 13.8333 13.9917C13.3583 13.1751 13.3 12.3334 13.6666 11.6917C14.0333 11.0501 14.7916 10.6834 15.7416 10.6834C16.275 10.6834 16.7 10.2584 16.7 9.72508V8.25841C16.7 7.73341 16.275 7.30008 15.7416 7.30008C14.7916 7.30008 14.0333 6.93341 13.6666 6.29174C13.3 5.65008 13.3583 4.80841 13.8333 3.99174C13.9583 3.77508 13.9916 3.51674 13.925 3.26674C13.8583 3.01674 13.7 2.81674 13.4833 2.68341L12.0416 1.85841C11.6833 1.64174 11.2083 1.76674 10.9916 2.13341L10.9 2.29174C10.425 3.11674 9.73329 3.58341 8.99163 3.58341C8.24996 3.58341 7.55829 3.11674 7.08329 2.29174L6.99163 2.12508C6.78329 1.77508 6.31663 1.65008 5.95829 1.85841L4.51663 2.69174C4.29996 2.81674 4.13329 3.02508 4.06663 3.27508C3.99996 3.52508 4.03329 3.78341 4.15829 4.00008C4.63329 4.81674 4.69163 5.65841 4.32496 6.30008C3.95829 6.94174 3.19996 7.30841 2.24996 7.30841C1.71663 7.30841 1.29163 7.73341 1.29163 8.26674V9.73341C1.29163 10.2584 1.71663 10.6917 2.24996 10.6917C3.19996 10.6917 3.95829 11.0584 4.32496 11.7001C4.69163 12.3417 4.63329 13.1834 4.15829 14.0001C4.03329 14.2167 3.99996 14.4751 4.06663 14.7251C4.13329 14.9751 4.29163 15.1751 4.50829 15.3084L5.94996 16.1334C6.12496 16.2417 6.33329 16.2667 6.52496 16.2167C6.72496 16.1667 6.89163 16.0334 6.99996 15.8584L7.09163 15.7001C7.56663 14.8834 8.25829 14.4084 8.99996 14.4084Z" fill="#7E92A2"/>
</g>
</g>
</svg>
