<svg width="16" height="14" viewBox="0 0 16 14" fill="none" xmlns="http://www.w3.org/2000/svg">
<g id="vuesax/bold/task">
<g id="Vector">
<path d="M14.6666 13.0503H7.10824C6.73324 13.0503 6.4249 12.7419 6.4249 12.3669C6.4249 11.9919 6.73324 11.6836 7.10824 11.6836H14.6666C15.0416 11.6836 15.3499 11.9919 15.3499 12.3669C15.3499 12.7503 15.0416 13.0503 14.6666 13.0503Z" fill="#7E92A2"/>
<path d="M14.6666 7.80859H7.10824C6.73324 7.80859 6.4249 7.50026 6.4249 7.12526C6.4249 6.75026 6.73324 6.44193 7.10824 6.44193H14.6666C15.0416 6.44193 15.3499 6.75026 15.3499 7.12526C15.3499 7.50026 15.0416 7.80859 14.6666 7.80859Z" fill="#7E92A2"/>
<path d="M14.6666 2.55859H7.10824C6.73324 2.55859 6.4249 2.25026 6.4249 1.87526C6.4249 1.50026 6.73324 1.19193 7.10824 1.19193H14.6666C15.0416 1.19193 15.3499 1.50026 15.3499 1.87526C15.3499 2.25026 15.0416 2.55859 14.6666 2.55859Z" fill="#7E92A2"/>
<path d="M2.09157 3.69193C1.90824 3.69193 1.73324 3.61693 1.60824 3.49193L0.849902 2.73359C0.583236 2.46693 0.583236 2.03359 0.849902 1.76693C1.11657 1.50026 1.5499 1.50026 1.81657 1.76693L2.09157 2.04193L3.8749 0.258594C4.14157 -0.00807291 4.5749 -0.00807291 4.84157 0.258594C5.10824 0.52526 5.10824 0.958594 4.84157 1.22526L2.5749 3.49193C2.44157 3.61693 2.2749 3.69193 2.09157 3.69193Z" fill="#7E92A2"/>
<path d="M2.09157 8.94193C1.91657 8.94193 1.74157 8.87526 1.60824 8.74193L0.849902 7.98359C0.583236 7.71693 0.583236 7.28359 0.849902 7.01693C1.11657 6.75026 1.5499 6.75026 1.81657 7.01693L2.09157 7.29193L3.8749 5.50859C4.14157 5.24193 4.5749 5.24193 4.84157 5.50859C5.10824 5.77526 5.10824 6.20859 4.84157 6.47526L2.5749 8.74193C2.44157 8.87526 2.26657 8.94193 2.09157 8.94193Z" fill="#7E92A2"/>
<path d="M2.09157 13.9419C1.91657 13.9419 1.74157 13.8753 1.60824 13.7419L0.849902 12.9836C0.583236 12.7169 0.583236 12.2836 0.849902 12.0169C1.11657 11.7503 1.5499 11.7503 1.81657 12.0169L2.09157 12.2919L3.8749 10.5086C4.14157 10.2419 4.5749 10.2419 4.84157 10.5086C5.10824 10.7753 5.10824 11.2086 4.84157 11.4753L2.5749 13.7419C2.44157 13.8753 2.26657 13.9419 2.09157 13.9419Z" fill="#7E92A2"/>
</g>
</g>
</svg>
