<svg width="18" height="20" viewBox="0 0 18 20" fill="none" xmlns="http://www.w3.org/2000/svg">
<g id="vuesax/bold/blur">
<g id="Vector">
<path d="M10.47 5.41012L12.93 4.20012C13.23 4.05012 13.31 3.66012 13.08 3.42012C12.19 2.44012 11.29 1.62012 10.57 1.00012C10.24 0.720121 9.74997 0.950121 9.74997 1.38012V4.96012C9.74997 5.33012 10.14 5.57012 10.47 5.41012Z" fill="white"/>
<path d="M9.74997 17.7401V19.3901C9.74997 19.6901 10.02 19.9401 10.32 19.8901C13.05 19.4401 15.33 17.6101 16.41 15.1501C16.6 14.7301 16.14 14.3101 15.72 14.5101L10.03 17.3001C9.85997 17.3801 9.74997 17.5501 9.74997 17.7401Z" fill="white"/>
<path d="M8.24997 1.36012C8.24997 0.93012 7.75997 0.70012 7.42997 0.97012C5.06997 2.95012 0.879974 7.12012 0.899974 11.9001C0.899974 15.9201 3.83997 19.2501 7.67997 19.8901C7.97997 19.9401 8.24997 19.6901 8.24997 19.3901V1.36012Z" fill="white"/>
<path d="M10.44 10.4701L15.73 8.25012C16 8.13012 16.13 7.82012 16 7.56012C15.63 6.83012 15.2 6.12012 14.73 5.46012C14.59 5.26012 14.33 5.20012 14.11 5.30012L10.02 7.29012C9.84997 7.37012 9.73997 7.55012 9.73997 7.74012V10.0101C9.74997 10.3601 10.11 10.6101 10.44 10.4701Z" fill="white"/>
<path d="M16.83 12.3101C16.99 12.2301 17.09 12.0801 17.09 11.9101C17.09 11.2701 17.01 10.6401 16.87 10.0201C16.8 9.72012 16.47 9.56012 16.19 9.68012L10.05 12.3001C9.86997 12.3801 9.74997 12.5601 9.74997 12.7601V14.9601C9.74997 15.3301 10.14 15.5701 10.47 15.4101L16.37 12.5401L16.83 12.3101Z" fill="white"/>
</g>
</g>
</svg>
