<svg width="18" height="18" viewBox="0 0 18 18" fill="none" xmlns="http://www.w3.org/2000/svg">
<g id="vuesax/outline/search-normal">
<g id="Vector">
<path d="M8.58342 17.1248C3.87508 17.1248 0.041748 13.2915 0.041748 8.58317C0.041748 3.87484 3.87508 0.0415039 8.58342 0.0415039C13.2917 0.0415039 17.1251 3.87484 17.1251 8.58317C17.1251 13.2915 13.2917 17.1248 8.58342 17.1248ZM8.58342 1.2915C4.55841 1.2915 1.29175 4.5665 1.29175 8.58317C1.29175 12.5998 4.55841 15.8748 8.58342 15.8748C12.6084 15.8748 15.8751 12.5998 15.8751 8.58317C15.8751 4.5665 12.6084 1.2915 8.58342 1.2915Z" fill="#7E92A2"/>
<path d="M17.3334 17.9582C17.1751 17.9582 17.0167 17.8998 16.8917 17.7748L15.2251 16.1082C14.9834 15.8665 14.9834 15.4665 15.2251 15.2248C15.4667 14.9832 15.8667 14.9832 16.1084 15.2248L17.7751 16.8915C18.0168 17.1332 18.0168 17.5332 17.7751 17.7748C17.6501 17.8998 17.4917 17.9582 17.3334 17.9582Z" fill="#7E92A2"/>
</g>
</g>
</svg>
